HIERARCHY
ROOT Hips
{
  OFFSET -60.1635 97.0386 362.774
  CHANNELS 6 Xposition Yposition Zposition Zrotation Xrotation Yrotation
  JOINT RightUpLeg
  {
    OFFSET -8.9458 -8.66707 0.101652
    CHANNELS 3 Zrotation Xrotation Yrotation
    JOINT RightLeg
    {
      OFFSET 0 -44.4227 1.3727
      CHANNELS 3 Zrotation Xrotation Yrotation
      JOINT RightFoot
      {
        OFFSET 0.253549 -42.0924 -1.46059
        CHANNELS 3 Zrotation Xrotation Yrotation
        JOINT RightToes
        {
          OFFSET 0.04 -4.41509 8.4991
          CHANNELS 3 Zrotation Xrotation Yrotation
          End Site
          {
            OFFSET -0.08 -0.137448 9.77979
          }
        }
      }
    }
  }
  JOINT Spine
  {
    OFFSET 0 11.8905 0
    CHANNELS 3 Zrotation Xrotation Yrotation
    JOINT Spine1
    {
      OFFSET 0 25.6574 0.127663
      CHANNELS 3 Zrotation Xrotation Yrotation
      JOINT HEad
      {
        OFFSET 0 8.73416 0.011341
        CHANNELS 3 Zrotation Xrotation Yrotation
        End Site
        {
          OFFSET -0.29 12.7742 2.51395
        }
      }
      JOINT LeftShoulder1
      {
        OFFSET 8.99 -0.362252 -0.22
        CHANNELS 3 Zrotation Xrotation Yrotation
        JOINT LeftArm
        {
          OFFSET 10.2827 -0.00338 0.322123
          CHANNELS 3 Zrotation Xrotation Yrotation
          JOINT LeftForeArm
          {
            OFFSET 32.7669 0.099144 -1.42434
            CHANNELS 3 Zrotation Xrotation Yrotation
            JOINT LeftHand
            {
              OFFSET 27.5643 0.085362 1.02216
              CHANNELS 3 Zrotation Xrotation Yrotation
              End Site
              {
                OFFSET 16.7443 -0.6 1.50291
              }
            }
          }
        }
      }
      JOINT RightShoulder
      {
        OFFSET -8.99 -0.362252 -0.22
        CHANNELS 3 Zrotation Xrotation Yrotation
        JOINT RightArm
        {
          OFFSET -10.2827 -0.00338 0.322123
          CHANNELS 3 Zrotation Xrotation Yrotation
          JOINT RightForeArm
          {
            OFFSET -32.8971 0.099144 -1.42434
            CHANNELS 3 Zrotation Xrotation Yrotation
            JOINT RightHand
            {
              OFFSET -27.4921 0.085362 1.02216
              CHANNELS 3 Zrotation Xrotation Yrotation
              End Site
              {
                OFFSET -16.6312 -0.6 1.50291
              }
            }
          }
        }
      }
    }
  }
  JOINT LeftUpLeg
  {
    OFFSET 8.9458 -8.66707 0.101652
    CHANNELS 3 Zrotation Xrotation Yrotation
    JOINT LeftLeg
    {
      OFFSET 0 -44.4227 1.3727
      CHANNELS 3 Zrotation Xrotation Yrotation
      JOINT LeftFoot
      {
        OFFSET -0.253549 -42.0924 -1.46059
        CHANNELS 3 Zrotation Xrotation Yrotation
        JOINT LeftToes
        {
          OFFSET -0.04 -4.41509 8.4991
          CHANNELS 3 Zrotation Xrotation Yrotation
          End Site
          {
            OFFSET 0.08 -0.047448 9.77979
          }
        }
      }
    }
  }
}
MOTION
Frames:	10
Frame Time:	0.0166667
-15.0301 94.3879 373.436 17.2153 1.18913 103.761 -27.2087 2.96834 22.0656 44.0667 32.3559 -44.9667 -31.6606 1.74836 -1.54621 0.0462048 0.000533403 0.662642 5.46203 22.7638 -3.04261 -0.000410076 3.09725e-009 -1.13075e-005 -8.95847 13.7642 20.8108 -1.98785e-016 2.48481e-017 -0 179.777 -65.7729 -148.77 -93.4853 61.0049 -22.4426 19.0887 16.645 -16.2551 13.1408 8.30185 -0.119599 102.075 -9.62646 70.9515 35.2337 54.9465 84.7004 17.0367 20.3555 2.49413 27.242 -7.92723 7.52021 -26.1098 23.2074 47.8507 -1.83859 -4.03809 -0.388187 -1.18446e-009 1.5602e-007 -4.87132e-009 
-14.769 94.7888 372.12 17.1277 1.4409 104.097 -27.3602 2.0959 22.8901 45.1427 31.7647 -46.2391 -31.5773 1.79779 -1.56233 0.0462048 0.000533403 0.662642 4.68726 22.8536 -3.01419 -0.000410076 3.09725e-009 -1.13075e-005 -9.26142 13.6016 20.0983 4.09993e-016 7.79609e-016 1.59028e-015 -179.844 -65.3843 -148.32 -94.4451 61.1728 -21.795 19.187 16.7139 -16.2134 13.5746 8.32654 -0.14399 101.943 -9.96417 71.0531 35.424 54.9538 84.7682 17.0032 20.3233 2.56303 26.7216 -7.11772 7.63587 -27.2373 22.1053 48.3451 -0.108259 -4.04378 -0.288242 -1.18446e-009 1.5602e-007 -4.87131e-009 
-14.5251 95.1423 370.885 17.0325 1.70669 104.451 -27.412 1.24429 23.5759 46.1149 31.1375 -47.2863 -31.4879 1.84486 -1.5804 0.0462048 0.000533403 0.662642 3.95132 22.9277 -2.98296 -0.000410076 3.09725e-009 -1.13075e-005 -9.48467 13.4453 19.3487 -3.31043e-032 5.96354e-016 3.18055e-015 -179.464 -64.9567 -147.884 -95.3895 61.2534 -21.1098 19.2616 16.7502 -16.1637 14.0554 8.3702 -0.311755 101.414 -11.0623 71.0625 36.4888 54.2332 85.7248 17.0378 20.302 2.58575 26.0972 -6.39024 6.38338 -28.5029 20.4746 49.9962 1.42774 -4.04131 -0.204444 -1.18447e-009 1.5602e-007 -4.87132e-009 
-14.3064 95.4361 369.748 16.9166 1.99133 104.795 -27.4048 0.672452 24.1487 46.2503 30.6157 -47.8013 -30.8575 1.82958 -1.58649 0.0462048 0.000533403 0.662642 3.25048 22.9793 -2.93307 -0.000410076 3.09725e-009 -1.13075e-005 -9.65284 13.293 18.5839 -0 -2.98177e-016 -0 -179.157 -64.4986 -147.525 -96.3273 61.232 -20.3799 19.3041 16.767 -16.1235 14.6113 8.43627 -0.607503 100.349 -13.1458 70.7649 38.513 53.1453 87.7567 18.6088 20.0878 1.00364 25.3844 -5.80446 3.93593 -29.7535 18.3688 52.6309 2.76923 -4.01404 -0.125219 -1.18447e-009 1.5602e-007 -4.87131e-009 
-14.1236 95.6334 368.747 16.7695 2.28646 105.111 -27.3479 0.471885 24.6052 45.5775 30.1827 -47.7694 -29.7073 1.73706 -1.56578 0.0462048 0.000533403 0.662642 2.56986 23.004 -2.85163 -0.000410076 3.09725e-009 -1.13075e-005 -9.76265 13.1372 17.8251 -1.98785e-016 8.44835e-016 -0 -178.94 -63.9994 -147.282 -97.2696 61.1016 -19.5866 19.3113 16.7776 -16.0933 15.2208 8.51898 -0.993545 99.0038 -15.5799 69.9226 40.6177 52.7433 90.6454 20.0945 19.5362 -0.617824 24.7206 -5.36945 1.56291 -30.7283 16.3808 55.1058 3.94611 -3.95414 -0.0414618 -1.18446e-009 1.5602e-007 -4.87132e-009 
-13.9833 95.7284 367.889 16.5879 2.5806 105.383 -27.2362 0.60964 24.9452 44.3072 29.7306 -47.2941 -28.2418 1.58468 -1.52625 0.0462048 0.000533403 0.662642 1.87644 23.005 -2.71755 -0.00717009 3.09725e-009 -1.13075e-005 -9.79022 12.9705 17.0888 3.97569e-016 -2.48481e-016 -0 -178.824 -63.4532 -147.178 -98.2651 60.8932 -18.6921 19.291 16.7985 -16.0691 15.6955 8.60696 -1.41824 97.9562 -17.4254 68.6254 41.6903 53.7031 93.9207 21.0216 18.8588 -2.41783 24.1093 -5.10672 -0.697249 -31.4704 14.5653 57.4476 4.96807 -3.86014 0.0426578 -1.18446e-009 1.5602e-007 -4.87131e-009 
-13.9047 95.7347 367.148 16.3964 2.88826 105.612 -27.0891 1.04754 25.2737 42.5176 29.2996 -46.5227 -26.4212 1.39104 -1.46766 0.0462048 0.000533403 0.662642 1.11691 22.967 -2.53705 -0.0144097 -0.00830998 -1.13075e-005 -9.76952 12.8538 16.3837 -3.97569e-016 -9.93923e-016 -0 -179.472 -63.1902 -148.069 -98.5624 60.2157 -18.9377 19.6294 16.8006 -15.767 16.4258 8.74409 -2.44283 96.689 -18.4839 66.4343 41.2142 56.5211 99.1505 21.5051 17.7845 -3.94675 23.5327 -4.94716 -2.88955 -32.1364 12.7833 59.7425 5.99201 -3.73831 0.132541 -1.18446e-009 1.5602e-007 -4.87131e-009 
-13.907 96.0931 366.5 16.2315 3.17908 105.808 -26.5699 1.84219 25.2506 39.4272 29.1803 -44.4613 -23.9686 1.09003 -1.3917 0.0462048 0.000533403 0.662642 0.183871 22.3191 -2.14553 -0.0262218 -0.04851 -1.13075e-005 -9.73397 13.0417 16.0596 3.97569e-016 8.94531e-016 -0 -178.199 -62.958 -148.257 -96.4025 59.5464 -21.2489 21.4857 20.7095 -19.3743 17.5864 6.56228 -1.40674 93.524 -20.5539 61.2773 36.0133 60.9313 106.498 22.1056 16.7868 -10.9994 22.6568 -5.01788 -4.74165 -32.23 11.7842 61.0902 6.62877 -3.60547 0.200961 -1.18447e-009 1.5602e-007 -4.87131e-009 
-14.1358 96.2922 365.864 16.1112 3.41529 105.98 -25.7265 2.8116 24.8563 35.3052 29.2167 -41.2458 -21.0317 0.713741 -1.2895 0.0462048 0.000533403 0.662642 -0.876354 21.1159 -1.60026 -0.0303501 -0.04985 -1.13075e-005 -9.66784 13.4379 16.1508 -3.97569e-016 -4.96962e-016 1.59028e-015 -174.878 -62.4912 -147.04 -92.8126 59.5099 -23.8527 24.0318 26.1474 -24.5121 18.8558 2.86625 0.909949 89.5714 -22.1184 54.0409 23.8695 65.8961 117.603 20.443 15.7907 -19.5601 21.5403 -5.35918 -6.25848 -31.8328 11.5344 61.5759 6.94634 -3.47565 0.249154 -1.18446e-009 1.5602e-007 -4.87131e-009 
-14.5466 96.4931 365.188 16.0297 3.58504 106.129 -24.9284 3.61463 24.1905 30.4164 29.1301 -36.6455 -14.3586 0.0202518 -1.16581 0.0462048 0.000533403 0.662642 -2.01781 19.3967 -0.948864 -0.0313501 -0.0479199 -0.000100817 -9.55288 14.0439 16.6627 1.59028e-015 -1.98785e-016 -3.18055e-015 -169.98 -61.7802 -144.852 -87.4557 59.794 -27.1382 27.1359 31.6227 -31.5701 20.1141 -1.67414 4.27893 85.9952 -22.7898 45.8558 3.74534 69.6997 133.122 15.3672 14.925 -21.8049 20.1366 -5.94046 -7.45203 -30.8703 11.9118 61.1853 7.01122 -3.28944 0.294094 -1.18446e-009 1.5602e-007 -4.87131e-009 
